<svg width="263" height="25" viewBox="0 0 263 25" fill="none" xmlns="http://www.w3.org/2000/svg">
<g clip-path="url(#clip0_1_3566)">
<path opacity="0.8" fill-rule="evenodd" clip-rule="evenodd" d="M104.123 16.7897C104.123 17.0665 104.032 17.251 103.849 17.3432C103.667 17.4355 103.393 17.5277 103.119 17.4355H101.385V16.0517H103.211C103.484 16.0517 103.667 16.0517 103.941 16.1439C104.032 16.3284 104.123 16.5129 104.123 16.7897ZM96.7314 16.0517H94.9063V17.62H96.8227C97.3702 17.62 97.7353 17.3432 97.7353 16.7897C97.644 16.3284 97.279 16.0517 96.7314 16.0517ZM123.652 17.0665C124.2 17.62 124.382 18.358 124.382 19.096C124.382 20.941 123.196 22.048 121.097 22.048H118.268C117.903 22.048 117.538 21.7712 117.355 21.4022C116.717 21.8635 115.986 22.048 115.165 22.048H112.336C112.154 22.048 112.062 22.048 111.88 21.9557C111.789 22.048 111.606 22.048 111.424 22.048H106.587C106.405 22.048 106.313 22.048 106.131 21.9557C105.948 22.048 105.857 22.048 105.675 22.048H104.214C103.667 22.048 103.211 21.5867 103.211 21.0332V19.7417H102.389V20.941C102.389 21.4945 101.933 21.9557 101.385 21.9557H99.9254C99.3779 21.9557 98.9216 21.4945 98.9216 20.941V19.3727C98.2828 19.7417 97.4615 19.9262 96.7314 19.9262H95.9101V20.941C95.9101 21.4945 95.4538 21.9557 94.9063 21.9557H92.0774C91.8036 21.9557 91.5298 21.8635 91.3473 21.5867L90.2523 20.3875L89.1572 21.5867C88.9747 21.7712 88.7009 21.9557 88.4271 21.9557H82.678C82.1305 21.9557 81.6742 21.4945 81.6742 20.941V14.7602C81.6742 14.2067 82.1305 13.7454 82.678 13.7454H88.5184C88.7922 13.7454 89.0659 13.8377 89.2484 14.1144L90.3435 15.3137L91.4386 14.1144C91.6211 13.9299 91.8949 13.7454 92.1686 13.7454H96.8227C97.644 13.7454 98.374 13.9299 99.1041 14.2989C99.2866 13.9299 99.6516 13.7454 100.017 13.7454H103.393C104.123 13.6532 104.944 13.8377 105.583 14.1144C105.675 14.1144 105.675 14.2067 105.766 14.2989C105.948 13.9299 106.313 13.7454 106.678 13.7454H111.515C111.88 13.7454 112.245 13.9299 112.336 14.2989C112.884 13.9299 113.614 13.7454 114.253 13.7454H117.173C117.629 13.7454 117.994 14.0222 118.085 14.3912C118.724 13.9299 119.454 13.6532 120.184 13.7454H123.104C123.652 13.7454 124.108 14.2067 124.108 14.7602V16.0517C124.108 16.5129 123.926 16.7897 123.652 17.0665C123.652 16.9742 123.652 16.9742 123.652 17.0665ZM99.1953 16.8819C99.1953 15.1292 97.9178 14.8524 96.7314 14.8524H92.0774L90.2523 16.8819L88.4271 14.8524H82.5867V21.0332H88.3359L90.161 19.0037L91.9861 21.0332H94.8151V19.0037H96.6402C97.9178 18.9115 99.1953 18.5425 99.1953 16.8819ZM104.762 18.0812C105.401 17.8045 105.857 17.1587 105.766 16.4207C105.766 15.8672 105.492 15.3137 105.036 15.0369C104.488 14.7602 103.849 14.6679 103.302 14.7602H99.9254V20.941H101.385V18.727H102.937C103.484 18.727 103.758 18.8192 104.032 19.0037C104.306 19.2805 104.306 19.834 104.306 20.203V20.941H105.766V19.7417C105.766 19.3727 105.766 18.9115 105.492 18.6347C105.218 18.358 105.036 18.2657 104.762 18.0812ZM111.424 14.8524H106.587V21.0332H111.424V19.7417H108.047V18.4502H111.332V17.1587H108.047V16.0517H111.424V14.8524ZM117.447 19.0037C117.447 18.5425 117.355 18.0812 116.99 17.7122C116.534 17.3432 115.895 17.1587 115.348 17.251H114.526C114.344 17.251 114.161 17.251 113.979 17.1587C113.705 17.0665 113.614 16.7897 113.705 16.5129C113.705 16.4207 113.796 16.3284 113.888 16.3284C114.07 16.2362 114.253 16.2362 114.435 16.2362H117.082V14.9447H114.161C112.61 14.9447 112.062 15.8672 112.062 16.7897C112.062 18.727 113.796 18.6347 115.165 18.727C115.348 18.727 115.53 18.727 115.713 18.8192C115.804 18.9115 115.895 19.096 115.895 19.1882C115.895 19.3727 115.804 19.465 115.713 19.5572C115.53 19.6495 115.348 19.7417 115.165 19.7417H112.336V21.0332H115.165C116.625 21.0332 117.447 20.3875 117.447 19.0037ZM123.378 19.0037C123.378 18.5425 123.287 18.0812 122.922 17.7122C122.466 17.3432 121.827 17.1587 121.279 17.251H120.458C120.275 17.251 120.093 17.251 119.91 17.1587C119.637 17.0665 119.545 16.7897 119.637 16.5129C119.637 16.4207 119.728 16.3284 119.819 16.3284C120.002 16.2362 120.184 16.2362 120.367 16.2362H123.013V14.9447H120.093C118.542 14.9447 117.994 15.8672 117.994 16.7897C117.994 18.727 119.728 18.6347 121.097 18.727C121.279 18.727 121.462 18.727 121.644 18.8192C121.736 18.9115 121.827 19.096 121.827 19.1882C121.827 19.3727 121.736 19.465 121.644 19.5572C121.462 19.6495 121.279 19.7417 121.097 19.7417H118.268V21.0332H121.097C122.557 21.0332 123.378 20.3875 123.378 19.0037ZM109.234 5.25833L108.23 7.74911H110.237L109.234 5.25833ZM97.644 6.73435C97.8265 6.6421 97.9178 6.36534 97.9178 6.18084C97.9178 5.99634 97.8265 5.71959 97.644 5.62734C97.4615 5.53508 97.1877 5.53508 96.9139 5.53508H95.0888V6.91885H96.8227C97.1877 6.91885 97.3702 6.8266 97.644 6.73435ZM93.4462 20.3875V15.4059L91.1648 17.8045L93.4462 20.3875ZM81.8567 11.4391C81.4917 11.4391 81.1266 11.1624 80.9441 10.7934L80.7616 10.3321C80.7616 10.8856 80.3053 11.3469 79.7578 11.3469H76.8376C76.4726 11.3469 76.1076 11.0701 75.925 10.7011L75.6513 9.96313H74.0087L73.7349 10.7011C73.5524 11.0701 73.1874 11.3469 72.8223 11.3469H71.271C70.7234 11.3469 70.2672 10.8856 70.2672 10.3321C70.2672 10.2399 70.2672 10.0554 70.3584 9.96313L73.0049 3.78232C73.1874 3.41331 73.5524 3.13656 73.9174 3.13656H75.7425C76.1076 3.13656 76.4726 3.41331 76.6551 3.78232L77.2026 5.07383V4.15132C77.2026 3.59782 77.6589 3.13656 78.2065 3.13656H80.5791C80.9441 3.13656 81.3092 3.41331 81.4917 3.69007L82.4042 5.81184L83.2255 3.78232C83.408 3.41331 83.7731 3.13656 84.1381 3.13656H86.6933C86.8758 3.13656 87.0583 3.22881 87.2408 3.32106C87.4233 3.22881 87.6058 3.13656 87.7883 3.13656H92.6249C92.8074 3.13656 92.9899 3.22881 93.1724 3.32106C93.355 3.22881 93.5375 3.13656 93.72 3.13656H97.0965C97.9178 3.04431 98.6478 3.22881 99.3779 3.59782C99.4691 3.59782 99.4691 3.69007 99.5604 3.78232C99.7429 3.41331 100.108 3.22881 100.473 3.22881H101.933C102.389 3.22881 102.846 3.59782 102.937 4.05907C103.667 3.41331 104.671 3.13656 105.675 3.22881H107.043C107.226 3.22881 107.5 3.32106 107.682 3.41331C107.865 3.32106 108.047 3.22881 108.321 3.22881H110.511C110.876 3.22881 111.241 3.50556 111.424 3.87457L111.971 5.16608V4.24357C111.971 3.69007 112.427 3.22881 112.975 3.22881H115.165C115.53 3.22881 115.804 3.41331 115.986 3.69007L116.717 4.88933V4.24357C116.717 3.69007 117.173 3.22881 117.72 3.22881H119.18C119.728 3.22881 120.184 3.69007 120.184 4.24357V10.4244C120.184 10.9779 119.728 11.4391 119.18 11.4391H117.082C116.717 11.4391 116.443 11.2546 116.26 10.9779L115.348 9.50187V10.5166C115.348 11.0701 114.891 11.5314 114.344 11.5314H111.332C110.967 11.5314 110.602 11.2546 110.42 10.8856L110.146 10.1476H108.503L108.23 10.8856C108.047 11.2546 107.682 11.5314 107.317 11.5314H105.583C104.671 11.5314 103.667 11.2546 102.937 10.7011C102.846 11.1624 102.481 11.5314 101.933 11.5314H100.382C100.199 11.5314 100.108 11.5314 99.9254 11.4391C99.7429 11.5314 99.6516 11.5314 99.4691 11.5314H98.009C97.4615 11.5314 97.0052 11.0701 97.0052 10.5166V9.40962H96.1839V10.6089C96.1839 11.1624 95.7276 11.6236 95.1801 11.6236H93.72C93.5375 11.6236 93.355 11.5314 93.1724 11.4391C92.9899 11.5314 92.8074 11.6236 92.6249 11.6236H87.7883C87.6058 11.6236 87.4233 11.5314 87.2408 11.4391C87.0583 11.5314 86.8758 11.6236 86.6933 11.6236H85.2332C84.6856 11.6236 84.2294 11.1624 84.2294 10.6089L84.0468 11.0701C83.8643 11.4391 83.4993 11.7159 83.1343 11.7159L81.8567 11.4391ZM102.572 7.3801C102.481 8.21036 102.754 9.13287 103.393 9.68638C104.032 10.1476 104.762 10.4244 105.492 10.3321H107.226L107.773 8.94837H110.785L111.332 10.3321H114.253V5.71959L116.99 10.3321H119.089V4.24357H117.629V8.48711L115.074 4.24357H112.884V10.0554L110.42 4.24357H108.23L106.131 9.04062H105.492C105.127 9.04062 104.762 8.94837 104.488 8.76387C104.214 8.30261 104.032 7.84136 104.123 7.28785C104.123 6.8266 104.214 6.27309 104.579 5.90409C104.853 5.62734 105.31 5.44283 105.675 5.53508H107.043V4.24357H105.675C104.853 4.15132 104.032 4.42807 103.484 4.98158C102.754 5.62734 102.481 6.45759 102.572 7.3801ZM105.583 6.54984C105.218 6.54984 105.218 6.54984 105.127 6.6421C105.036 6.8266 105.036 7.10335 105.036 7.28785C105.036 7.56461 105.036 7.74911 105.127 8.02586H105.401L106.04 6.54984H105.583ZM100.382 4.24357V10.4244H101.842V4.24357H100.382ZM93.6287 10.4244H95.0888V8.11811H96.6402C97.0052 8.02586 97.3702 8.11811 97.7353 8.39486C97.9178 8.76387 98.009 9.22512 98.009 9.59412V10.3321H99.4691V9.13287C99.5604 8.76387 99.4691 8.30261 99.1953 8.02586C99.0128 7.74911 98.7391 7.65686 98.4653 7.47235C99.1041 7.1956 99.4691 6.54985 99.4691 5.81184C99.4691 5.25833 99.1953 4.70483 98.7391 4.42807C98.1915 4.15132 97.5527 4.05907 97.0052 4.15132H93.6287V10.4244ZM87.7883 4.24357V10.4244H92.6249V9.13287H89.2484V7.84136H92.5337V6.6421H89.2484V5.53508H92.6249V4.24357H87.7883ZM81.8567 10.4244H83.1343L85.2332 5.53508V10.3321H86.6933V4.24357H84.2294L82.4955 8.39486L80.5791 4.24357H78.2065V10.0554L75.7425 4.24357H73.5524L70.906 10.4244H72.4573L73.0049 9.04062H76.0163L76.5638 10.4244H79.484V5.53508L81.8567 10.4244ZM84.0468 16.1439V17.251H87.2408V18.4502H84.0468V19.6495H87.6058L89.2484 17.8045L87.6971 16.0517H84.0468V16.1439ZM73.6436 7.74911H75.6513L74.6475 5.25833L73.6436 7.74911ZM166.086 17.0665C164.9 16.0517 163.987 14.8524 163.348 13.4687C163.075 12.8229 162.801 12.0849 162.618 11.3469C162.436 10.6089 162.345 9.77863 162.436 9.04062C162.527 6.36534 163.622 3.87457 165.447 2.02955L165.904 1.5683L165.995 1.47604C164.717 0.553535 163.166 0.0922806 161.615 2.97166e-05C156.504 -0.368974 152.124 3.50556 151.668 8.57936V9.31737C151.668 11.1624 152.215 12.9152 153.219 14.4834C156.139 18.727 161.797 19.9262 166.086 17.0665ZM167.82 23.6163V23.893H165.995C165.995 24.262 166.36 24.5388 166.725 24.5388C166.999 24.5388 167.272 24.4465 167.455 24.262L167.729 24.631C167.455 24.9078 167.09 25 166.725 25C165.995 25 165.447 24.4465 165.447 23.7085C165.447 22.9705 165.995 22.417 166.725 22.417C167.272 22.417 167.82 22.9705 167.82 23.6163ZM167.272 23.524C167.272 23.155 166.999 22.8783 166.634 22.9705C166.269 22.9705 165.995 23.2473 165.995 23.524H167.272ZM171.379 22.8783C171.653 22.8783 171.835 22.9705 172.018 23.0628L172.291 22.6015C172.018 22.417 171.744 22.3248 171.379 22.3248H171.288C170.649 22.3248 170.101 22.9705 170.101 23.6163V23.7085C170.101 24.3543 170.74 24.9078 171.379 24.9078C171.653 24.9078 172.018 24.8155 172.291 24.631L172.018 24.1698C171.835 24.3543 171.653 24.3543 171.379 24.3543C171.014 24.3543 170.649 23.9853 170.649 23.6163C170.558 23.3395 170.923 22.9705 171.379 22.8783ZM169.554 22.417C169.28 22.417 169.006 22.5093 168.915 22.786V22.5093H168.367V24.9078H168.915V23.524C168.915 23.155 169.097 22.8783 169.463 22.8783C169.554 22.8783 169.645 22.8783 169.828 22.9705L170.01 22.5093C169.828 22.417 169.645 22.417 169.554 22.417ZM176.215 22.786V22.5093H175.668V24.9078H176.215V23.524C176.215 23.155 176.398 22.8783 176.763 22.8783C176.854 22.8783 176.946 22.8783 177.128 22.9705L177.311 22.5093C177.219 22.5093 177.037 22.417 176.946 22.417C176.58 22.417 176.398 22.5093 176.215 22.786ZM179.409 21.4945H179.957V24.9078H179.409V24.631C179.227 24.9078 178.953 25 178.679 25C177.949 25 177.402 24.4465 177.402 23.7085C177.402 22.9705 177.949 22.417 178.679 22.417C178.953 22.417 179.227 22.5093 179.409 22.786V21.4945ZM179.409 23.8008C179.409 23.4318 179.136 23.0628 178.679 22.9705C178.314 22.9705 177.949 23.2473 177.949 23.7085C177.949 24.0775 178.223 24.4465 178.679 24.5388C179.044 24.5388 179.409 24.1698 179.409 23.8008ZM174.482 22.5093H175.029V24.9078H174.482V24.631C174.299 24.9078 174.025 25 173.752 25C173.021 25 172.474 24.4465 172.474 23.7085C172.474 22.9705 173.021 22.417 173.752 22.417C174.025 22.417 174.299 22.5093 174.482 22.786V22.5093ZM174.482 23.8008C174.482 23.4318 174.208 23.0628 173.752 22.9705C173.387 22.9705 173.022 23.2473 173.022 23.7085C173.022 24.0775 173.295 24.4465 173.752 24.5388C174.117 24.5388 174.482 24.1698 174.482 23.8008ZM167.272 1.5683C167.272 1.5683 167.272 1.66055 167.364 1.7528C168.459 2.67531 169.371 3.87457 170.01 5.25833C170.74 6.91885 171.014 8.76387 170.831 10.5166C170.74 11.3469 170.558 12.1772 170.284 12.9152C169.828 14.1144 169.189 15.1292 168.367 16.0517C168.094 16.4207 167.729 16.6974 167.364 17.0665L167.272 17.1587C170.375 19.1882 174.39 19.1882 177.402 17.1587C181.691 14.2989 182.786 8.57936 180.048 4.24357C177.219 -0.0922211 171.47 -1.29148 167.272 1.5683ZM164.535 24.4465C164.261 24.4465 164.17 24.262 164.17 24.0775V22.9705H164.991V22.5093H164.17V21.7712H163.622V22.5093H163.166V22.9705H163.622V24.0775C163.622 24.631 163.805 25 164.443 25C164.717 25 164.9 24.9078 165.082 24.8155L164.9 24.3543C164.808 24.4465 164.626 24.4465 164.535 24.4465ZM163.075 9.31737C163.075 12.1772 164.352 14.9447 166.634 16.6974C166.634 16.6974 166.725 16.6974 166.725 16.6052C168.824 14.8524 170.101 12.2694 170.193 9.50187C170.193 8.94837 170.193 8.30261 170.01 7.74911C169.828 6.91885 169.645 6.08859 169.189 5.25833C168.641 4.05907 167.729 2.95206 166.725 2.02955C166.725 2.02955 166.634 1.9373 166.542 1.9373C164.443 3.78232 163.075 6.45759 163.075 9.31737ZM159.516 22.5093H160.063V24.9078H159.516V24.631C159.333 24.9078 159.059 25 158.786 25C158.056 25 157.508 24.4465 157.508 23.7085C157.508 22.9705 158.056 22.417 158.786 22.417C159.059 22.417 159.333 22.5093 159.516 22.786V22.5093ZM159.607 23.8008C159.607 23.4318 159.333 23.0628 158.877 22.9705C158.512 22.9705 158.147 23.2473 158.147 23.7085C158.147 24.0775 158.421 24.4465 158.877 24.5388C159.242 24.5388 159.607 24.1698 159.607 23.8008ZM157.143 23.2473C157.143 22.786 156.687 22.3248 156.23 22.417C155.865 22.417 155.592 22.6015 155.409 22.8783C155.227 22.6015 154.953 22.417 154.588 22.417C154.314 22.417 154.04 22.5093 153.858 22.786V22.5093H153.31V24.9078H153.858V23.4318C153.858 23.155 154.132 22.8783 154.497 22.8783C154.862 22.8783 155.044 23.0628 155.044 23.524V24.9078H155.592V23.4318C155.592 23.155 155.865 22.8783 156.23 22.8783C156.595 22.8783 156.778 23.0628 156.778 23.524V24.9078H157.325V23.3395C157.143 23.3395 157.143 23.3395 157.143 23.2473ZM161.888 23.4318H161.615C161.341 23.4318 161.158 23.3395 161.158 23.155C161.158 22.9705 161.341 22.8783 161.615 22.8783C161.888 22.8783 162.162 22.9705 162.345 23.0628L162.618 22.6015C162.345 22.417 161.98 22.3248 161.615 22.3248C160.976 22.3248 160.611 22.6015 160.611 23.155C160.611 23.524 160.884 23.8008 161.432 23.893H161.706C161.98 23.893 162.162 23.9853 162.162 24.1698C162.162 24.3543 161.98 24.4465 161.615 24.4465C161.341 24.4465 161.067 24.3543 160.793 24.1698L160.519 24.631C160.793 24.8155 161.158 25 161.615 24.9078C162.345 24.9078 162.71 24.5388 162.71 24.0775C162.801 23.8008 162.436 23.524 161.888 23.4318ZM260.262 6.36534H260.719V7.65686H260.992V6.36534H261.449V6.18084H260.262V6.36534ZM262.726 6.08859L262.361 7.10335C262.27 7.28785 262.27 7.28785 262.27 7.3801C262.179 7.28785 262.179 7.28785 262.179 7.1956L261.814 6.18084H261.54V7.5646H261.631V6.27309L262.087 7.5646H262.361L262.817 6.27309V7.5646H263V6.08859H262.726ZM234.528 8.39486L231.699 13.3764L231.243 8.39486H228.414L229.6 17.1587L227.593 20.941H230.787L237.54 8.39486H234.528ZM227.228 11.5314L225.95 17.3432H223.121L223.304 16.3284C221.844 17.8967 218.011 17.8045 218.65 14.2989C219.106 12.1772 221.205 11.5314 224.307 11.5314C224.49 10.5166 223.851 10.3321 222.847 10.3321C221.935 10.4244 221.022 10.6089 220.11 10.9779L220.383 8.94837C221.387 8.67162 222.482 8.48711 223.577 8.39486C225.494 8.30261 227.684 9.13287 227.228 11.5314ZM223.942 13.8377H223.212C222.665 13.8377 221.844 13.8377 221.57 14.3912C221.113 15.1292 221.661 15.4982 222.3 15.4982C223.03 15.4059 223.577 15.1292 223.76 14.3912C223.76 14.1144 223.851 13.7454 223.942 13.8377ZM219.38 10.2399C219.015 12.3617 217.189 13.8377 215.091 13.7454H212.9L212.079 17.3432H208.976L211.258 5.71959H216.551C218.011 5.71959 219.927 7.65686 219.38 10.2399ZM216.459 9.77863C216.642 9.22512 216.368 8.67162 215.821 8.48711C215.638 8.39486 215.547 8.39486 215.364 8.39486H213.904L213.265 11.0701H214.726C215.547 11.0701 216.277 10.5166 216.459 9.77863ZM254.787 11.5314L253.509 17.3432H250.68L250.863 16.3284C249.403 17.8967 245.479 17.8045 246.118 14.2989C246.574 12.1772 248.673 11.5314 251.867 11.5314C252.049 10.5166 251.41 10.3321 250.407 10.3321C249.494 10.4244 248.582 10.6089 247.669 10.9779L247.943 8.94837C249.038 8.67162 250.133 8.48711 251.228 8.39486C253.053 8.30261 255.152 9.13287 254.787 11.5314ZM251.502 13.8377H250.772C250.133 13.8377 249.312 13.8377 249.038 14.3912C248.673 15.1292 249.22 15.4982 249.859 15.4982C250.589 15.4059 251.228 15.1292 251.319 14.3912C251.319 14.1144 251.41 13.7454 251.502 13.8377ZM246.848 10.2399C246.483 12.3617 244.658 13.8377 242.559 13.7454H240.368L239.547 17.3432H236.444L238.726 5.71959H243.927C245.479 5.71959 247.304 7.65686 246.848 10.2399ZM243.836 9.77863C244.019 9.22512 243.745 8.67162 243.197 8.48711C243.015 8.39486 242.924 8.39486 242.741 8.39486H241.281L240.642 11.0701H242.011C242.924 11.0701 243.654 10.5166 243.836 9.77863ZM254.878 17.3432H257.707L260.08 5.71959H257.16L254.878 17.3432ZM42.6166 16.8819C42.4341 16.9742 42.4341 16.9742 42.3428 16.9742H39.4226C39.3314 16.3284 39.1489 15.6827 39.0576 15.1292C39.0576 15.0369 39.0576 15.0369 38.9663 15.0369H34.6773C34.5861 15.0369 34.5861 15.0369 34.5861 15.1292C34.5861 15.2214 34.4948 15.4059 34.4948 15.4982C34.4035 15.7749 34.3123 16.0517 34.221 16.2362C34.1298 16.5129 34.0385 16.6974 33.9473 16.9742C33.9473 17.0665 33.856 17.0665 33.856 17.0665H30.297V16.9742C30.4795 16.4207 30.7533 15.8672 30.9358 15.3137C31.1183 14.8524 31.3008 14.3912 31.4833 14.0222L31.9396 12.9152C31.9396 12.8229 32.0309 12.7307 32.0309 12.7307L32.4872 11.6236C32.5784 11.4391 32.6697 11.2546 32.6697 11.0701L33.0347 10.2399C33.0347 10.1476 33.0347 10.1476 33.126 10.0554L33.5822 8.85612C33.5822 8.85612 33.5822 8.76387 33.6735 8.76387L34.1298 7.74911C34.1298 7.65686 34.221 7.56461 34.221 7.47235L34.6773 6.36534C34.6773 6.27309 34.7686 6.27309 34.7686 6.18084L35.4074 4.61258C35.4986 4.24357 35.7724 3.96682 36.0461 3.78232H36.1374C36.3199 3.69007 36.5937 3.59782 36.8675 3.59782H39.9702C40.0614 3.59782 40.0614 3.59782 40.0614 3.69007C40.4264 5.25833 40.7002 6.91885 41.0652 8.48711L42.1603 14.0222C42.2516 14.4834 42.3428 14.8524 42.4341 15.3137C42.4341 15.6827 42.5253 16.2362 42.6166 16.8819ZM38.4188 12.1772C38.3275 11.9926 38.3275 11.7159 38.2363 11.5314C37.9625 10.3321 37.6888 9.04062 37.5062 7.84136V7.5646C37.5062 7.3801 37.415 7.28785 37.415 7.1956C37.2325 7.65686 37.1412 8.02586 36.9587 8.48711V8.67162L36.4112 10.3321V10.5166C36.3199 10.7934 36.1374 11.1624 36.0461 11.4391V11.6236C35.9549 11.8081 35.9549 11.9926 35.8636 12.1772C35.8636 12.2694 35.8636 12.2694 35.9549 12.2694H38.4188C38.3275 12.0849 38.4188 12.0849 38.4188 12.1772ZM14.966 6.27309C15.0573 6.08859 15.1485 5.90409 15.1485 5.81184C15.331 5.53509 15.4223 5.25833 15.5135 4.98158C15.6048 4.88933 15.6048 4.79708 15.696 4.61258C15.696 4.52032 15.7873 4.42807 15.7873 4.33582L16.1523 3.41331H12.5021L12.4108 3.69007L12.1371 4.24357C12.1371 4.61258 11.9545 4.88933 11.8633 5.16608C11.772 5.44283 11.5895 5.71959 11.4983 5.99634C11.407 6.27309 11.3158 6.54985 11.2245 6.73435L10.677 8.11811C10.677 8.21036 10.5857 8.30261 10.5857 8.39486L10.2207 9.40962L9.67314 10.7934C9.67314 10.8856 9.58189 10.8856 9.58189 10.9779L9.12561 12.2694L9.03435 12.5462V12.4539C8.94309 12.1772 8.94309 11.8081 8.85184 11.5314C8.76058 11.2546 8.76058 11.0701 8.66933 10.7934V10.7011L8.48681 9.59412L7.93928 6.8266C7.75677 6.27309 7.66551 5.53508 7.483 4.79708C7.39174 3.96682 6.75295 3.41331 5.93164 3.41331H0.0912561C0.0912561 3.59782 0 3.69007 0 3.78232V3.87457L0.547536 3.96682C1.00382 4.05907 1.4601 4.24357 1.91638 4.33582L2.2814 4.52032C2.73768 4.70483 3.19396 4.88933 3.55899 5.07383C3.65024 5.16608 3.83276 5.25833 3.92401 5.44283C4.01527 5.62734 4.19778 5.90409 4.19778 6.18084C4.38029 6.91885 4.5628 7.65686 4.83657 8.48711L6.29667 14.0222C6.57044 14.9447 6.75295 15.8672 7.02672 16.7897C7.02672 16.7897 7.02672 16.8819 7.11797 16.8819H10.7682C10.7682 16.7897 10.8595 16.6974 10.8595 16.5129C10.9507 16.3284 10.9507 16.2362 11.042 16.0517C11.1332 15.7749 11.3158 15.4982 11.407 15.1292L11.9545 13.8377V13.7454L12.5021 12.5462L12.7759 11.9926C12.8671 11.7159 12.9584 11.4391 13.1409 11.1624C13.2321 10.9779 13.3234 10.7934 13.3234 10.7011C13.4146 10.4244 13.5972 10.1476 13.6884 9.87088V9.77863L13.7797 9.68638V9.59412L14.1447 8.30261C14.2359 8.02586 14.4185 7.74911 14.5097 7.47235C14.6922 7.10335 14.8747 6.6421 14.966 6.27309ZM21.0802 3.41331H17.6124V3.59782L17.3387 4.98158C17.2474 5.25833 17.2474 5.44283 17.1561 5.71959L16.8824 7.10335C16.8824 7.1956 16.7911 7.3801 16.7911 7.47235C16.7911 7.65686 16.6999 7.74911 16.6999 7.93361L16.4261 9.40962C16.4261 9.50187 16.3348 9.68638 16.3348 9.77863L16.1523 10.7934C16.0611 11.1624 15.9698 11.6236 15.8786 11.9926L15.696 12.9152C15.696 13.0997 15.6048 13.2842 15.6048 13.4687L15.331 14.7602C15.331 14.8524 15.2398 14.9447 15.2398 15.0369L14.8747 16.6974V16.7897H18.3425V16.6052C18.4337 16.3284 18.4337 16.0517 18.525 15.6827C18.525 15.4982 18.6162 15.3137 18.6162 15.1292L18.89 13.7454L18.9813 13.3764L19.0725 13.0074V12.8229L19.3463 11.6236C19.4375 11.1624 19.5288 10.6089 19.6201 10.1476C19.7113 9.96313 19.7113 9.68638 19.8026 9.50187C19.8938 8.85612 20.0763 8.30261 20.1676 7.65686C20.2588 7.3801 20.2588 7.0111 20.3501 6.73435C20.5326 5.90409 20.7151 4.98158 20.8976 4.15132C20.9889 3.96682 21.0802 3.69007 21.0802 3.41331ZM29.567 10.2399C29.0194 9.68638 28.3806 9.22512 27.7418 8.94837C27.2856 8.67162 26.8293 8.48711 26.373 8.21036H26.2817C26.0992 8.11811 25.9167 7.93361 25.8255 7.74911C25.643 7.5646 25.643 7.3801 25.643 7.10335C25.643 7.0111 25.7342 6.8266 25.8255 6.73435C26.008 6.45759 26.373 6.27309 26.6468 6.18084C26.8293 6.08859 27.1031 6.08859 27.2856 6.08859H28.6544C28.9282 6.08859 29.2019 6.18084 29.4757 6.27309C29.7495 6.36534 30.1145 6.45759 30.3883 6.6421H30.4795L30.662 5.90409C30.7533 5.62734 30.7533 5.44283 30.8446 5.16608C30.9358 4.70483 31.0271 4.24357 31.0271 3.87457C31.0271 3.78232 31.0271 3.78232 30.9358 3.78232C30.8446 3.78232 30.8446 3.69007 30.7533 3.69007L29.6582 3.41331H29.567C29.0194 3.32106 28.4719 3.22881 27.9244 3.22881H27.0118C26.8293 3.22881 26.738 3.22881 26.5555 3.32106C26.1905 3.32106 25.9167 3.41331 25.643 3.50556C25.3692 3.59782 25.0042 3.69007 24.6391 3.87457C24.3654 3.96682 24.0916 4.15132 23.8178 4.33582C23.5441 4.52032 23.2703 4.79708 22.9965 5.07383C22.9053 5.16608 22.9053 5.25833 22.814 5.25833C22.6315 5.53508 22.449 5.81184 22.3577 6.08859V6.18084C22.1752 6.54984 22.084 7.0111 22.084 7.3801C21.9927 7.84136 22.084 8.39486 22.2665 8.85612C22.449 9.40962 22.814 9.77863 23.179 10.1476C23.4528 10.4244 23.8178 10.7011 24.1829 10.8856C24.4566 11.0701 24.7304 11.1624 25.0042 11.3469C25.0954 11.4391 25.2779 11.4391 25.3692 11.5314C25.5517 11.6236 25.643 11.7159 25.8255 11.8081C26.008 11.9004 26.2817 12.0849 26.4643 12.2694C26.6468 12.4539 26.738 12.6384 26.8293 12.9152V13.0997C26.8293 13.2842 26.738 13.5609 26.5555 13.7454C26.373 13.9299 26.1905 14.0222 26.008 14.1144C25.9167 14.2067 25.7342 14.2067 25.643 14.2067C25.2779 14.2989 24.9129 14.2989 24.6391 14.2989H24.1829C23.8178 14.2989 23.4528 14.2067 22.9965 14.1144C22.814 14.1144 22.6315 14.0222 22.449 14.0222C22.2665 13.9299 22.084 13.9299 21.9015 13.8377C21.6277 13.7454 21.4452 13.6532 21.1714 13.5609C21.1714 13.5609 21.0802 13.4687 21.0802 13.5609C20.9889 13.8377 20.9889 14.1144 20.8976 14.3912C20.7151 15.0369 20.6239 15.7749 20.4414 16.4207V16.5129C20.7151 16.6052 21.0802 16.7897 21.4452 16.8819C21.5364 16.8819 21.7189 16.9742 21.8102 16.9742C21.9015 16.9742 21.9927 17.0665 22.084 17.0665C22.3577 17.1587 22.6315 17.1587 22.9053 17.1587H25.0954C25.3692 17.1587 25.7342 17.0665 26.008 17.0665C26.1905 17.0665 26.373 16.9742 26.4643 16.9742C26.8293 16.8819 27.1031 16.7897 27.4681 16.6974C27.6506 16.6052 27.9244 16.5129 28.1069 16.3284H28.1981C28.4719 16.1439 28.7457 15.9594 28.9282 15.7749C29.2019 15.4982 29.4757 15.2214 29.6582 14.8524C30.1145 14.1144 30.297 13.2842 30.2058 12.4539C30.3883 11.5314 30.1145 10.7934 29.567 10.2399Z" fill="black"/>
</g>
<defs>
<clipPath id="clip0_1_3566">
<rect width="263" height="25" fill="white"/>
</clipPath>
</defs>
</svg>
