<svg width="156" height="24" viewBox="0 0 156 24" fill="none" xmlns="http://www.w3.org/2000/svg">
<path d="M23.9921 12.0004C23.9921 18.0612 19.5008 23.0717 13.6663 23.8848C13.1208 23.9605 12.5626 24 11.996 24C11.3421 24 10.6999 23.9479 10.0745 23.847C4.36266 22.9271 0 17.9729 0 12.0004C0 5.37294 5.37136 0 11.9969 0C18.6224 0 23.9938 5.37294 23.9938 12.0004H23.9921Z" fill="black"/>
<path d="M13.6662 9.63594V12.2501H16.8991L16.3872 15.7715H13.6662V23.8848C13.1206 23.9604 12.5625 24 11.9959 24C11.342 24 10.6997 23.9478 10.0743 23.8469V15.7715H7.09277V12.2501H10.0743V9.05156C10.0743 7.06719 11.6824 5.45782 13.667 5.45782V5.45951C13.6729 5.45951 13.6779 5.45782 13.6838 5.45782H16.8999V8.50334H14.7985C14.1739 8.50334 13.667 9.01036 13.667 9.63511L13.6662 9.63594Z" fill="white"/>
<path d="M56.0179 0H55.9633C49.3529 0 43.9941 5.36035 43.9941 11.9727V12.0273C43.9941 18.6397 49.3529 24 55.9633 24H56.0179C62.6283 24 67.9871 18.6397 67.9871 12.0273V11.9727C67.9871 5.36035 62.6283 0 56.0179 0Z" fill="black"/>
<path d="M59.7023 4.88257H52.2782C50.2272 4.88257 48.5586 6.55163 48.5586 8.60327V15.3972C48.5586 17.4489 50.2272 19.1179 52.2782 19.1179H59.7023C61.7533 19.1179 63.4219 17.4489 63.4219 15.3972V8.60327C63.4219 6.55163 61.7533 4.88257 59.7023 4.88257ZM49.8708 8.60327C49.8708 7.27559 50.9509 6.19511 52.2782 6.19511H59.7023C61.0296 6.19511 62.1097 7.27559 62.1097 8.60327V15.3972C62.1097 16.7249 61.0296 17.8054 59.7023 17.8054H52.2782C50.9509 17.8054 49.8708 16.7249 49.8708 15.3972V8.60327Z" fill="white"/>
<path d="M55.9901 15.4603C57.8974 15.4603 59.45 13.9081 59.45 11.9994C59.45 10.0907 57.8983 8.53851 55.9901 8.53851C54.082 8.53851 52.5303 10.0907 52.5303 11.9994C52.5303 13.9081 54.082 15.4603 55.9901 15.4603ZM55.9901 9.8519C57.1745 9.8519 58.1378 10.8155 58.1378 12.0002C58.1378 13.185 57.1745 14.1486 55.9901 14.1486C54.8058 14.1486 53.8424 13.185 53.8424 12.0002C53.8424 10.8155 54.8058 9.8519 55.9901 9.8519Z" fill="white"/>
<path d="M59.7701 9.09771C60.2837 9.09771 60.7023 8.67981 60.7023 8.16522C60.7023 7.65063 60.2845 7.23273 59.7701 7.23273C59.2557 7.23273 58.8379 7.65063 58.8379 8.16522C58.8379 8.67981 59.2557 9.09771 59.7701 9.09771Z" fill="white"/>
<path d="M111.978 12.0004C111.978 18.0612 107.487 23.0717 101.653 23.8848C101.107 23.9605 100.549 24 99.9824 24C99.3284 24 98.6862 23.9479 98.0608 23.847C92.349 22.9271 87.9863 17.9729 87.9863 12.0004C87.9863 5.37294 93.3577 0 99.9832 0C106.609 0 111.98 5.37294 111.98 12.0004H111.978Z" fill="black"/>
<path d="M92.8509 5.29309L98.3836 12.6925L92.8164 18.7086H94.0697L98.9443 13.4416L102.882 18.7086H107.147L101.303 10.8931L106.485 5.29309H105.232L100.743 10.1439L97.116 5.29309H92.8517H92.8509ZM94.6934 6.21633H96.652L105.303 17.7854H103.344L94.6934 6.21633Z" fill="white"/>
<path d="M155.973 12C155.973 5.37258 150.602 0 143.977 0C137.351 0 131.98 5.37258 131.98 12C131.98 18.6274 137.351 24 143.977 24C150.602 24 155.973 18.6274 155.973 12Z" fill="black"/>
<path d="M151.531 9.51334C151.436 8.60181 151.233 7.59416 150.485 7.06461C149.906 6.65395 149.145 6.63877 148.434 6.63962C146.932 6.63962 145.429 6.64215 143.927 6.64299C142.482 6.64468 141.037 6.64552 139.592 6.64721C138.989 6.64721 138.402 6.60083 137.842 6.86223C137.36 7.08653 136.983 7.51321 136.757 7.98794C136.442 8.64819 136.376 9.39614 136.339 10.1264C136.269 11.4561 136.276 12.7893 136.36 14.1182C136.421 15.0879 136.577 16.1597 137.326 16.7778C137.991 17.325 138.928 17.352 139.79 17.3529C142.524 17.3554 145.26 17.3579 147.995 17.3596C148.346 17.3604 148.712 17.3537 149.069 17.3149C149.772 17.239 150.442 17.0375 150.894 16.5164C151.35 15.991 151.468 15.26 151.537 14.5677C151.705 12.8879 151.704 11.1922 151.531 9.51334ZM142.346 14.3543V9.64489L146.422 11.9992L142.346 14.3543Z" fill="white"/>
</svg>
