<svg width="168" height="25" viewBox="0 0 168 25" fill="none" xmlns="http://www.w3.org/2000/svg">
<path d="M11.0489 3.33492C11.3483 2.41361 12.6517 2.41361 12.9511 3.33492L14.4697 8.00868C14.6035 8.4207 14.9875 8.69966 15.4207 8.69966H20.335C21.3037 8.69966 21.7065 9.93928 20.9228 10.5087L16.947 13.3972C16.5966 13.6519 16.4499 14.1032 16.5838 14.5153L18.1024 19.189C18.4017 20.1103 17.3472 20.8765 16.5635 20.3071L12.5878 17.4185C12.2373 17.1639 11.7627 17.1639 11.4122 17.4185L7.43648 20.3071C6.65276 20.8765 5.59828 20.1103 5.89763 19.189L7.41623 14.5153C7.55011 14.1032 7.40345 13.6519 7.05296 13.3972L3.07722 10.5087C2.29351 9.93928 2.69628 8.69966 3.66501 8.69966H8.57929C9.01252 8.69966 9.39647 8.4207 9.53035 8.00868L11.0489 3.33492Z" fill="#FFC107"/>
<path d="M47.0489 3.33492C47.3483 2.41361 48.6517 2.41361 48.9511 3.33492L50.4697 8.00868C50.6035 8.4207 50.9875 8.69966 51.4207 8.69966H56.335C57.3037 8.69966 57.7065 9.93928 56.9228 10.5087L52.947 13.3972C52.5966 13.6519 52.4499 14.1032 52.5838 14.5153L54.1024 19.189C54.4017 20.1103 53.3472 20.8765 52.5635 20.3071L48.5878 17.4185C48.2373 17.1639 47.7627 17.1639 47.4122 17.4185L43.4365 20.3071C42.6528 20.8765 41.5983 20.1103 41.8976 19.189L43.4162 14.5153C43.5501 14.1032 43.4034 13.6519 43.053 13.3972L39.0772 10.5087C38.2935 9.93928 38.6963 8.69966 39.665 8.69966H44.5793C45.0125 8.69966 45.3965 8.4207 45.5303 8.00868L47.0489 3.33492Z" fill="#FFC107"/>
<path d="M83.0489 3.33492C83.3483 2.41361 84.6517 2.41361 84.9511 3.33492L86.4697 8.00868C86.6035 8.4207 86.9875 8.69966 87.4207 8.69966H92.335C93.3037 8.69966 93.7065 9.93928 92.9228 10.5087L88.947 13.3972C88.5966 13.6519 88.4499 14.1032 88.5838 14.5153L90.1024 19.189C90.4017 20.1103 89.3472 20.8765 88.5635 20.3071L84.5878 17.4185C84.2373 17.1639 83.7627 17.1639 83.4122 17.4185L79.4365 20.3071C78.6528 20.8765 77.5983 20.1103 77.8976 19.189L79.4162 14.5153C79.5501 14.1032 79.4034 13.6519 79.053 13.3972L75.0772 10.5087C74.2935 9.93928 74.6963 8.69966 75.665 8.69966H80.5793C81.0125 8.69966 81.3965 8.4207 81.5303 8.00868L83.0489 3.33492Z" fill="#FFC107"/>
<path d="M119.049 3.33492C119.348 2.41361 120.652 2.41361 120.951 3.33492L122.47 8.00868C122.604 8.4207 122.987 8.69966 123.421 8.69966H128.335C129.304 8.69966 129.706 9.93928 128.923 10.5087L124.947 13.3972C124.597 13.6519 124.45 14.1032 124.584 14.5153L126.102 19.189C126.402 20.1103 125.347 20.8765 124.564 20.3071L120.588 17.4185C120.237 17.1639 119.763 17.1639 119.412 17.4185L115.436 20.3071C114.653 20.8765 113.598 20.1103 113.898 19.189L115.416 14.5153C115.55 14.1032 115.403 13.6519 115.053 13.3972L111.077 10.5087C110.294 9.93928 110.696 8.69966 111.665 8.69966H116.579C117.013 8.69966 117.396 8.4207 117.53 8.00868L119.049 3.33492Z" fill="#FFC107"/>
<path d="M155.049 3.33492C155.348 2.41361 156.652 2.41361 156.951 3.33492L158.47 8.00868C158.604 8.4207 158.987 8.69966 159.421 8.69966H164.335C165.304 8.69966 165.706 9.93928 164.923 10.5087L160.947 13.3972C160.597 13.6519 160.45 14.1032 160.584 14.5153L162.102 19.189C162.402 20.1103 161.347 20.8765 160.564 20.3071L156.588 17.4185C156.237 17.1639 155.763 17.1639 155.412 17.4185L151.436 20.3071C150.653 20.8765 149.598 20.1103 149.898 19.189L151.416 14.5153C151.55 14.1032 151.403 13.6519 151.053 13.3972L147.077 10.5087C146.294 9.93928 146.696 8.69966 147.665 8.69966H152.579C153.013 8.69966 153.396 8.4207 153.53 8.00868L155.049 3.33492Z" fill="#FFC107"/>
</svg>
